<?xml version="1.0" encoding="utf-8"?>
<!-- Generator: Adobe Illustrator 21.1.0, SVG Export Plug-In . SVG Version: 6.00 Build 0)  -->
<svg version="1.1" id="Layer_1" xmlns="http://www.w3.org/2000/svg" xmlns:xlink="http://www.w3.org/1999/xlink" x="0px" y="0px"
	 viewBox="0 0 1700.8 1700.8" style="enable-background:new 0 0 1700.8 1700.8;" xml:space="preserve">
<style type="text/css">
	.st0{fill:#00768E;}
</style>
<g>
	<path class="st0" d="M353.9,1645c-21.7-13.5-39-31.9-54.6-51.7c-38.2-48.2-60.6-104-76.5-162.7c-14.8-54.7-24.4-109.8-28.8-166.3
		c-3.9-49.3-5.3-99.6-1.2-148.8c4.8-58.8,11.2-104.9,23.9-159.9c55-224,138.1-436.8,255.3-635.7c40.8-69.2,87-134.5,143.2-192.3
		c27.5-28.3,57.4-53.7,90.9-75C780.2,5.6,857.4,1,937.7,34.7c60.3,25.3,110.9,64.5,157,109.9c70.1,69,126.8,148.1,176.2,232.7
		c99.8,170.6,170.2,352.6,211.5,545.9c18.6,87,29.5,174.8,27.8,263.9c-0.7,34.6-3.8,73.8-11.3,107.7c0-1.8-0.2-9.7-0.2-10.7
		c1.8-147.3-22-290.3-71.2-429.1c-32.4-91.4-74.3-178-133.5-255.4c-21.1-27.6-44.9-52.7-71.9-74.8c-50.8-41.8-106.7-52.9-169.7-32.4
		c-54.8,17.9-103.6,46.3-148.9,81.2C828,631.7,763.5,701.1,704.8,775.9c-122.2,155.5-220.5,325-293.2,509.1
		c-25.6,64.8-46.6,131.1-58.2,199.9c-8.3,49.2-12.3,98.5-0.9,147.8c0.9,3.8,1.6,7.5,2.3,11.3c0.2,0.8,0.3,1.6,0.3,1.6
		S354.2,1645.2,353.9,1645z"/>
	<path class="st0" d="M460.8,1677.9c11.4,6.8,20.9,10.1,38.1,10.1c10.6,0,35.6-3.9,54.8-12.9c33.7-15.8,58.3-35.6,84.6-62
		c64.6-64.8,130.9-127.9,197-191.1c67.5-64.5,132.7-131.6,204.2-192c33.7-28.5,68.2-55.8,108.3-75.2c14.8-7.1,30.2-12.5,46.7-14.1
		c31.8-3.2,57.4,9.9,78.9,31.7c35.2,35.6,62.5,76.7,82.5,122.7c14.9,34.3,30.7,68.2,51.9,99.2c3,4.4,7.1,9.3,11.3,12.3
		c9.1-65.4,11.9-130.3,8.8-195.5c-3.6-74.4-14.3-147.7-32.1-220c-24.6-100.1-60.5-195.8-113.3-284.7
		c-26.6-44.7-56.8-86.8-96.5-121.2c-6-5.2-11.2-9.3-11.2-9.3s-3.6,6.7-6.8,12.9c-69.9,135.3-146.8,266.4-237.9,388.7
		c-41,55-84.7,107.7-137.7,151.8c-27.4,22.9-56.6,42.7-91.8,51.8c-30.9,8-56.9,0.5-77.7-24.1c-6.6-7.9-12.4-16.3-17.6-25.1
		c-8.6-14.5-15.1-30-22.4-46.6c-6.3,11.7-12,22.4-17.7,33.1c-49.9,94.5-93.7,191.7-123.4,294.6c-16.3,56.3-28.7,113.4-25.7,172.7
		C418,1647.2,454.2,1673.9,460.8,1677.9z"/>
</g>
</svg>
